<svg width="48" height="48" viewBox="0 0 48 48" fill="none" xmlns="http://www.w3.org/2000/svg">
<g clip-path="url(#clip0_1_1269)">
<g clip-path="url(#clip1_1_1269)">
<rect width="48" height="48" rx="12" fill="url(#paint0_linear_1_1269)" fill-opacity="0.04"/>
<g style="mix-blend-mode:plus-lighter" opacity="0.5" filter="url(#filter0_f_1_1269)">
<circle cx="24" cy="24" r="14" fill="#105DFB"/>
<path fill-rule="evenodd" clip-rule="evenodd" d="M14.8759 29.9595V17.7435H20.5232C22.3371 17.7435 23.8076 19.2139 23.8076 21.0278C23.8076 22.1805 23.4532 22.8945 22.1536 23.627C23.7087 24.3356 24.1406 25.3177 24.1406 26.6875C24.1406 28.5406 22.4944 29.9595 20.6413 29.9595H14.8759ZM17.2656 19.7656V22.7031H20.0625C20.0625 22.7031 21.4219 22.7031 21.4219 21.2344C21.4219 19.7656 20.0625 19.7656 20.0625 19.7656H17.2656ZM17.2656 27.8906V24.7188H20.2656C20.75 24.7188 21.7656 24.9688 21.7656 26.4688C21.7656 27.5813 20.7656 27.8802 20.2656 27.8906H17.2656Z" fill="white"/>
<path fill-rule="evenodd" clip-rule="evenodd" d="M29.25 21.1094C27.5312 21.1094 24.9844 22.3438 24.9844 25.625C24.9844 27.623 26.0781 30.1875 29.3594 30.1875C31.9844 30.1875 33.1927 28.2604 33.4688 27.2969H31C30.875 27.7344 30.3906 28.2188 29.3594 28.2188C27.8594 28.2188 27.3281 26.9375 27.25 26.2969H33.4688V25.625C33.4688 22.3438 30.9688 21.1094 29.25 21.1094ZM29.25 22.9844C27.85 22.9844 27.3333 24.1406 27.25 24.7188H31C31 24.1406 30.65 22.9844 29.25 22.9844Z" fill="white"/>
<path d="M26.2656 18.4375V19.9531H32.1562V18.4375H26.2656Z" fill="white"/>
</g>
<circle cx="24" cy="24" r="14" fill="#105DFB"/>
<path fill-rule="evenodd" clip-rule="evenodd" d="M14.8759 29.9595V17.7435H20.5232C22.3371 17.7435 23.8076 19.2139 23.8076 21.0278C23.8076 22.1805 23.4532 22.8945 22.1536 23.627C23.7087 24.3356 24.1406 25.3177 24.1406 26.6875C24.1406 28.5406 22.4944 29.9595 20.6413 29.9595H14.8759ZM17.2656 19.7656V22.7031H20.0625C20.0625 22.7031 21.4219 22.7031 21.4219 21.2344C21.4219 19.7656 20.0625 19.7656 20.0625 19.7656H17.2656ZM17.2656 27.8906V24.7188H20.2656C20.75 24.7188 21.7656 24.9688 21.7656 26.4688C21.7656 27.5813 20.7656 27.8802 20.2656 27.8906H17.2656Z" fill="white"/>
<path fill-rule="evenodd" clip-rule="evenodd" d="M29.25 21.1094C27.5312 21.1094 24.9844 22.3438 24.9844 25.625C24.9844 27.623 26.0781 30.1875 29.3594 30.1875C31.9844 30.1875 33.1927 28.2604 33.4688 27.2969H31C30.875 27.7344 30.3906 28.2188 29.3594 28.2188C27.8594 28.2188 27.3281 26.9375 27.25 26.2969H33.4688V25.625C33.4688 22.3438 30.9688 21.1094 29.25 21.1094ZM29.25 22.9844C27.85 22.9844 27.3333 24.1406 27.25 24.7188H31C31 24.1406 30.65 22.9844 29.25 22.9844Z" fill="white"/>
<path d="M26.2656 18.4375V19.9531H32.1562V18.4375H26.2656Z" fill="white"/>
<g filter="url(#filter1_f_1_1269)">
<ellipse cx="24.5" cy="47.5" rx="11.5" ry="6.5" fill="#1460F9"/>
</g>
</g>
<rect width="48" height="48" rx="12" stroke="url(#paint1_linear_1_1269)" stroke-opacity="0.5" stroke-width="0.8"/>
<g style="mix-blend-mode:screen" filter="url(#filter2_f_1_1269)">
<circle cx="17" cy="17" r="9" fill="white" fill-opacity="0.18"/>
</g>
</g>
<defs>
<filter id="filter0_f_1_1269" x="-4" y="-4" width="56" height="56" filterUnits="userSpaceOnUse" color-interpolation-filters="sRGB">
<feFlood flood-opacity="0" result="BackgroundImageFix"/>
<feBlend mode="normal" in="SourceGraphic" in2="BackgroundImageFix" result="shape"/>
<feGaussianBlur stdDeviation="6" result="effect1_foregroundBlur_1_1269"/>
</filter>
<filter id="filter1_f_1_1269" x="-5" y="23" width="59" height="49" filterUnits="userSpaceOnUse" color-interpolation-filters="sRGB">
<feFlood flood-opacity="0" result="BackgroundImageFix"/>
<feBlend mode="normal" in="SourceGraphic" in2="BackgroundImageFix" result="shape"/>
<feGaussianBlur stdDeviation="9" result="effect1_foregroundBlur_1_1269"/>
</filter>
<filter id="filter2_f_1_1269" x="-12" y="-12" width="58" height="58" filterUnits="userSpaceOnUse" color-interpolation-filters="sRGB">
<feFlood flood-opacity="0" result="BackgroundImageFix"/>
<feBlend mode="normal" in="SourceGraphic" in2="BackgroundImageFix" result="shape"/>
<feGaussianBlur stdDeviation="10" result="effect1_foregroundBlur_1_1269"/>
</filter>
<linearGradient id="paint0_linear_1_1269" x1="0" y1="0" x2="48" y2="48" gradientUnits="userSpaceOnUse">
<stop stop-color="#F8FBFF"/>
<stop offset="1" stop-color="white" stop-opacity="0"/>
</linearGradient>
<linearGradient id="paint1_linear_1_1269" x1="1" y1="-1" x2="46.5" y2="48" gradientUnits="userSpaceOnUse">
<stop stop-color="#D8D8D8" stop-opacity="0.05"/>
<stop offset="1" stop-color="white" stop-opacity="0.4"/>
</linearGradient>
<clipPath id="clip0_1_1269">
<rect width="48" height="48" fill="white"/>
</clipPath>
<clipPath id="clip1_1_1269">
<rect width="48" height="48" rx="12" fill="white"/>
</clipPath>
</defs>
</svg>
