<svg width="48" height="48" viewBox="0 0 48 48" fill="none" xmlns="http://www.w3.org/2000/svg">
<g clip-path="url(#clip0_1_1249)">
<g clip-path="url(#clip1_1_1249)">
<rect width="48" height="48" rx="12" fill="url(#paint0_linear_1_1249)" fill-opacity="0.04"/>
<g style="mix-blend-mode:plus-lighter" opacity="0.5" clip-path="url(#clip2_1_1249)" filter="url(#filter0_f_1_1249)">
<path d="M32.899 13.2396L24.0944 20.1108L15.0885 13.2396V13.2415L15.0994 13.2508V22.8723L23.9928 29.8921L32.899 23.1435V13.2396Z" fill="#EA4335"/>
<path d="M35.211 11.5682L32.8988 13.2396V23.1434L40.1746 17.5573V14.1923C40.1746 14.1923 39.2914 9.38614 35.211 11.5682Z" fill="#FBBC05"/>
<path d="M32.8988 23.1436V35.9891H38.4753C38.4753 35.9891 40.0621 35.8256 40.1764 34.0168V17.5575L32.8988 23.1436Z" fill="#34A853"/>
<path d="M15.0998 35.9999V22.8722L15.0885 22.8629L15.0998 35.9999Z" fill="#C5221F"/>
<path d="M15.0884 13.2416L12.7889 11.5795C8.70852 9.39744 7.82353 14.2017 7.82353 14.2017V17.5667L15.0884 22.8631V13.2416Z" fill="#C5221F"/>
<path d="M15.0885 13.2414V22.863L15.0998 22.8723V13.2507L15.0885 13.2414Z" fill="#C5221F"/>
<path d="M7.82353 17.5685V34.0278C7.93597 35.8384 9.5246 36 9.5246 36H15.1011L15.0884 22.863L7.82353 17.5685Z" fill="#4285F4"/>
</g>
<g filter="url(#filter1_d_1_1249)">
<path d="M32.187 14.0605L24.0868 20.382L15.8014 14.0605V14.0622L15.8114 14.0707V22.9225L23.9934 29.3807L32.187 23.172V14.0605Z" fill="#EA4335"/>
<path d="M34.3141 12.5228L32.1869 14.0604V23.1719L38.8806 18.0327V14.9369C38.8806 14.9369 38.0681 10.5152 34.3141 12.5228Z" fill="#FBBC05"/>
<path d="M32.1869 23.1721V34.9899H37.3173C37.3173 34.9899 38.7772 34.8396 38.8823 33.1755V18.0329L32.1869 23.1721Z" fill="#34A853"/>
<path d="M15.8118 34.9999V22.9224L15.8014 22.9139L15.8118 34.9999Z" fill="#C5221F"/>
<path d="M15.8014 14.0623L13.6858 12.5331C9.93184 10.5256 9.11765 14.9456 9.11765 14.9456V18.0414L15.8014 22.9141V14.0623Z" fill="#C5221F"/>
<path d="M15.8014 14.0621V22.9139L15.8118 22.9225V14.0707L15.8014 14.0621Z" fill="#C5221F"/>
<path d="M9.11765 18.043V33.1856C9.22109 34.8514 10.6826 35 10.6826 35H15.813L15.8014 22.914L9.11765 18.043Z" fill="#4285F4"/>
</g>
<g filter="url(#filter2_f_1_1249)">
<ellipse cx="24.5" cy="47.5" rx="11.5" ry="6.5" fill="#EB4A3C"/>
</g>
</g>
<rect width="48" height="48" rx="12" stroke="url(#paint1_linear_1_1249)" stroke-opacity="0.5" stroke-width="0.8"/>
<g style="mix-blend-mode:screen" filter="url(#filter3_f_1_1249)">
<circle cx="17" cy="17" r="9" fill="white" fill-opacity="0.18"/>
</g>
</g>
<defs>
<filter id="filter0_f_1_1249" x="-8" y="-8" width="64" height="64" filterUnits="userSpaceOnUse" color-interpolation-filters="sRGB">
<feFlood flood-opacity="0" result="BackgroundImageFix"/>
<feBlend mode="normal" in="SourceGraphic" in2="BackgroundImageFix" result="shape"/>
<feGaussianBlur stdDeviation="8" result="effect1_foregroundBlur_1_1249"/>
</filter>
<filter id="filter1_d_1_1249" x="6" y="7" width="36" height="36" filterUnits="userSpaceOnUse" color-interpolation-filters="sRGB">
<feFlood flood-opacity="0" result="BackgroundImageFix"/>
<feColorMatrix in="SourceAlpha" type="matrix" values="0 0 0 0 0 0 0 0 0 0 0 0 0 0 0 0 0 0 127 0" result="hardAlpha"/>
<feOffset dy="1"/>
<feGaussianBlur stdDeviation="1"/>
<feComposite in2="hardAlpha" operator="out"/>
<feColorMatrix type="matrix" values="0 0 0 0 0.0627451 0 0 0 0 0.0941176 0 0 0 0 0.156863 0 0 0 0.05 0"/>
<feBlend mode="normal" in2="BackgroundImageFix" result="effect1_dropShadow_1_1249"/>
<feBlend mode="normal" in="SourceGraphic" in2="effect1_dropShadow_1_1249" result="shape"/>
</filter>
<filter id="filter2_f_1_1249" x="-5" y="23" width="59" height="49" filterUnits="userSpaceOnUse" color-interpolation-filters="sRGB">
<feFlood flood-opacity="0" result="BackgroundImageFix"/>
<feBlend mode="normal" in="SourceGraphic" in2="BackgroundImageFix" result="shape"/>
<feGaussianBlur stdDeviation="9" result="effect1_foregroundBlur_1_1249"/>
</filter>
<filter id="filter3_f_1_1249" x="-12" y="-12" width="58" height="58" filterUnits="userSpaceOnUse" color-interpolation-filters="sRGB">
<feFlood flood-opacity="0" result="BackgroundImageFix"/>
<feBlend mode="normal" in="SourceGraphic" in2="BackgroundImageFix" result="shape"/>
<feGaussianBlur stdDeviation="10" result="effect1_foregroundBlur_1_1249"/>
</filter>
<linearGradient id="paint0_linear_1_1249" x1="0" y1="0" x2="48" y2="48" gradientUnits="userSpaceOnUse">
<stop stop-color="#F8FBFF"/>
<stop offset="1" stop-color="white" stop-opacity="0"/>
</linearGradient>
<linearGradient id="paint1_linear_1_1249" x1="1" y1="-1" x2="46.5" y2="48" gradientUnits="userSpaceOnUse">
<stop stop-color="#D8D8D8" stop-opacity="0.05"/>
<stop offset="1" stop-color="white" stop-opacity="0.4"/>
</linearGradient>
<clipPath id="clip0_1_1249">
<rect width="48" height="48" fill="white"/>
</clipPath>
<clipPath id="clip1_1_1249">
<rect width="48" height="48" rx="12" fill="white"/>
</clipPath>
<clipPath id="clip2_1_1249">
<rect width="32" height="32" fill="white" transform="translate(8 8)"/>
</clipPath>
</defs>
</svg>
